HIERARCHY
ROOT hip
{
  OFFSET 0 0 0
  CHANNELS 6 Xposition Yposition Zposition Zrotation Yrotation Xrotation
  JOINT abdomen
  {
    OFFSET 0 20.6881 -0.73152
    CHANNELS 3 Zrotation Xrotation Yrotation
    JOINT chest
    {
      OFFSET 0 11.7043 -0.48768
      CHANNELS 3 Zrotation Xrotation Yrotation
      JOINT neck
      {
        OFFSET 0 22.1894 -2.19456
        CHANNELS 3 Zrotation Xrotation Yrotation
        JOINT head
        {
          OFFSET -0.24384 7.07133 1.2192
          CHANNELS 3 Zrotation Xrotation Yrotation
          JOINT leftEye
          {
            OFFSET 4.14528 8.04674 8.04672
            CHANNELS 3 Zrotation Xrotation Yrotation
            End Site
            {
              OFFSET 1 0 0
            }
          }
          JOINT rightEye
          {
            OFFSET -3.6576 8.04674 8.04672
            CHANNELS 3 Zrotation Xrotation Yrotation
            End Site
            {
              OFFSET 1 0 0
            }
          }
        }
      }
      JOINT rCollar
      {
        OFFSET -2.68224 19.2634 -4.8768
        CHANNELS 3 Zrotation Xrotation Yrotation
        JOINT rShldr
        {
          OFFSET -8.77824 -1.95073 1.46304
          CHANNELS 3 Zrotation Xrotation Yrotation
          JOINT rForeArm
          {
            OFFSET -28.1742 -1.7115 0.48768
            CHANNELS 3 Zrotation Xrotation Yrotation
            JOINT rHand
            {
              OFFSET -22.5879 0.773209 7.07136
              CHANNELS 3 Zrotation Xrotation Yrotation
              JOINT rThumb1
              {
                OFFSET -1.2192 -0.487915 3.41376
                CHANNELS 3 Zrotation Xrotation Yrotation
                JOINT rThumb2
                {
                  OFFSET -3.37035 -0.52449 3.41376
                  CHANNELS 3 Zrotation Xrotation Yrotation
                  End Site
                  {
                    OFFSET -1.78271 -1.18214 1.43049
                  }
                }
              }
              JOINT rIndex1
              {
                OFFSET -7.75947 0.938293 5.60832
                CHANNELS 3 Zrotation Xrotation Yrotation
                JOINT rIndex2
                {
                  OFFSET -2.54057 -0.884171 1.56538
                  CHANNELS 3 Zrotation Xrotation Yrotation
                  End Site
                  {
                    OFFSET -1.62519 -0.234802 1.16502
                  }
                }
              }
              JOINT rMid1
              {
                OFFSET -8.24714 1.18213 3.41376
                CHANNELS 3 Zrotation Xrotation Yrotation
                JOINT rMid2
                {
                  OFFSET -3.10165 -0.590103 1.0647
                  CHANNELS 3 Zrotation Xrotation Yrotation
                  End Site
                  {
                    OFFSET -2.48547 -0.328903 0.83742
                  }
                }
              }
              JOINT rRing1
              {
                OFFSET -8.82822 0.546677 1.51678
                CHANNELS 3 Zrotation Xrotation Yrotation
                JOINT rRing2
                {
                  OFFSET -2.60934 -0.819778 -0.0198488
                  CHANNELS 3 Zrotation Xrotation Yrotation
                  End Site
                  {
                    OFFSET -2.33842 -0.294052 0.168128
                  }
                }
              }
              JOINT rPinky1
              {
                OFFSET -8.27202 -0.0477905 -0.4584
                CHANNELS 3 Zrotation Xrotation Yrotation
                JOINT rPinky2
                {
                  OFFSET -1.82734 -0.647385 -0.700984
                  CHANNELS 3 Zrotation Xrotation Yrotation
                  End Site
                  {
                    OFFSET -1.69225 -0.51767 -0.607171
                  }
                }
              }
            }
          }
        }
      }
      JOINT lCollar
      {
        OFFSET 2.68224 19.2634 -4.8768
        CHANNELS 3 Zrotation Xrotation Yrotation
        JOINT lShldr
        {
          OFFSET 8.77824 -1.95073 1.46304
          CHANNELS 3 Zrotation Xrotation Yrotation
          JOINT lForeArm
          {
            OFFSET 28.1742 -1.7115 0.48768
            CHANNELS 3 Zrotation Xrotation Yrotation
            JOINT lHand
            {
              OFFSET 22.5879 0.773209 7.07136
              CHANNELS 3 Zrotation Xrotation Yrotation
              JOINT lThumb1
              {
                OFFSET 1.2192 -0.487915 3.41376
                CHANNELS 3 Zrotation Xrotation Yrotation
                JOINT lThumb2
                {
                  OFFSET 3.37035 -0.52449 3.41376
                  CHANNELS 3 Zrotation Xrotation Yrotation
                  End Site
                  {
                    OFFSET 1.78271 -1.18214 1.43049
                  }
                }
              }
              JOINT lIndex1
              {
                OFFSET 7.75947 0.938293 5.60832
                CHANNELS 3 Zrotation Xrotation Yrotation
                JOINT lIndex2
                {
                  OFFSET 2.54057 -0.884171 1.56538
                  CHANNELS 3 Zrotation Xrotation Yrotation
                  End Site
                  {
                    OFFSET 1.62519 -0.234802 1.16502
                  }
                }
              }
              JOINT lMid1
              {
                OFFSET 8.24714 1.18213 3.41376
                CHANNELS 3 Zrotation Xrotation Yrotation
                JOINT lMid2
                {
                  OFFSET 3.10165 -0.590103 1.0647
                  CHANNELS 3 Zrotation Xrotation Yrotation
                  End Site
                  {
                    OFFSET 2.48547 -0.328903 0.83742
                  }
                }
              }
              JOINT lRing1
              {
                OFFSET 8.82822 0.546677 1.51678
                CHANNELS 3 Zrotation Xrotation Yrotation
                JOINT lRing2
                {
                  OFFSET 2.60934 -0.819778 -0.0198488
                  CHANNELS 3 Zrotation Xrotation Yrotation
                  End Site
                  {
                    OFFSET 2.33842 -0.294052 0.168128
                  }
                }
              }
              JOINT lPinky1
              {
                OFFSET 8.27202 -0.0477905 -0.4584
                CHANNELS 3 Zrotation Xrotation Yrotation
                JOINT lPinky2
                {
                  OFFSET 1.82734 -0.647385 -0.700984
                  CHANNELS 3 Zrotation Xrotation Yrotation
                  End Site
                  {
                    OFFSET 1.69225 -0.51767 -0.607171
                  }
                }
              }
            }
          }
        }
      }
    }
  }
  JOINT rButtock
  {
    OFFSET -8.77824 4.35084 1.2192
    CHANNELS 3 Zrotation Xrotation Yrotation
    JOINT rThigh
    {
      OFFSET 0 -1.70687 -2.19456
      CHANNELS 3 Zrotation Xrotation Yrotation
      JOINT rShin
      {
        OFFSET 0 -36.8199 0.73152
        CHANNELS 3 Zrotation Xrotation Yrotation
        JOINT rFoot
        {
          OFFSET 0.73152 -45.1104 -5.12064
          CHANNELS 3 Zrotation Xrotation Yrotation
          End Site
          {
            OFFSET -1.1221 -3.69964 12.103
          }
        }
      }
    }
  }
  JOINT lButtock
  {
    OFFSET 8.77824 4.35084 1.2192
    CHANNELS 3 Zrotation Xrotation Yrotation
    JOINT lThigh
    {
      OFFSET 0 -1.70687 -2.19456
      CHANNELS 3 Zrotation Xrotation Yrotation
      JOINT lShin
      {
        OFFSET 0 -36.8199 0.73152
        CHANNELS 3 Zrotation Xrotation Yrotation
        JOINT lFoot
        {
          OFFSET -0.73152 -45.1104 -5.12064
          CHANNELS 3 Zrotation Xrotation Yrotation
          End Site
          {
            OFFSET 1.1221 -3.69964 12.103
          }
        }
      }
    }
  }
}
MOTION
Frames:	6
Frame Time:	0.00833333
-2.82793 85.3572 172.624 0.0 0.0 0.0 1.31605 -0.00470384 0.0362378 0.363463 -0.0035946 0.0629626 4.17968e-14 -7.95139e-16 2.23633e-16 1.25775e-13 3.18055e-15 5.93248e-16 -0.0 0.0 0.0 -0.0 0.0 0.0 2.10703e-14 -3.45544e-17 2.48481e-16 4.4261e-13 -7.20594e-16 4.37326e-15 7.59039e-12 -2.29099e-12 -4.45278e-14 8.67717e-11 2.14541e-12 5.37514e-13 2.04699e-10 -3.17711e-13 1.07503e-12 3.53491e-10 -5.53417e-13 1.85108e-12 2.04703e-10 -3.16068e-13 1.06867e-12 7.73091 5.47488 0.417314 2.04699e-10 -3.18155e-13 1.07821e-12 2.90554 0.965183 0.102902 2.04706e-10 -3.1726e-13 1.07423e-12 10.2786 0.731801 0.0259123 2.04692e-10 -3.16068e-13 1.08457e-12 2.22167 -0.733487 -0.20892 2.0974e-14 -3.33896e-17 -1.49089e-16 4.38659e-13 -1.10574e-15 2.98177e-15 7.57375e-12 2.24547e-12 -9.54166e-15 8.67854e-11 -2.41093e-12 5.27972e-13 2.04699e-10 -3.56519e-13 1.09093e-12 3.53523e-10 -6.17028e-13 1.86937e-12 2.04697e-10 -3.55029e-13 1.10047e-12 -7.73091 5.47488 -0.417314 2.04699e-10 -3.5662e-13 1.08775e-12 -2.90554 0.965183 -0.102902 2.04693e-10 -3.5652e-13 1.08854e-12 -10.2786 0.731801 -0.0259123 2.04702e-10 -3.54632e-13 1.08457e-12 -2.22167 -0.733487 0.20892 -2.03217e-16 0.0 -3.88251e-19 1.46221 -6.13863 -0.13474 0.00180659 5.56149 0.0541929 -0.477914 0.57502 0.0659399 2.03217e-16 0.0 3.88251e-19 0.544701 -1.92085 0.00800523 0.00891033 -2.07861 0.0733836 0.452858 3.99724 -0.131543
-1.51757 83.3872 160.84 178.328 0.4066 -172.671 -0.141756 -1.75874 0.15787 1.20435 0.930388 0.0944856 0.414066 -5.65343 0.177327 0.195437 7.88179 -0.672202 -0.0 0.0 0.0 -0.0 0.0 0.0 2.91062e-14 -5.83931e-14 -5.37262e-15 22.8278 -0.356257 -1.34543 -3.28078 -1.34235 5.27362 0.226582 10.5931 1.39853 7.67212e-11 3.27975e-11 -1.48305e-11 1.32414e-10 5.65131e-11 -2.38101e-11 7.67259e-11 3.27985e-11 -1.48396e-11 7.73091 5.47488 0.417314 7.67199e-11 3.27955e-11 -1.48264e-11 2.90554 0.965183 0.102902 7.6728e-11 3.27961e-11 -1.48314e-11 10.2786 0.731801 0.0259123 7.67138e-11 3.27975e-11 -1.48229e-11 2.22167 -0.733487 -0.20892 2.90227e-14 -5.83925e-14 -5.74301e-15 -22.6891 2.34704 -0.753626 2.71155 -1.03365 -4.42624 -0.403391 14.1719 -1.77875 2.76697e-10 1.23447e-11 -7.99069e-11 4.73242e-10 1.86141e-11 -1.41887e-10 2.76693e-10 1.23462e-11 -7.98946e-11 -7.73091 5.47488 -0.417314 2.76696e-10 1.23429e-11 -7.99102e-11 -2.90554 0.965183 -0.102902 2.7669e-10 1.23437e-11 -7.99072e-11 -10.2786 0.731801 -0.0259123 2.76701e-10 1.23457e-11 -7.99122e-11 -2.22167 -0.733487 0.20892 -2.03217e-16 0.0 -3.88251e-19 1.93486 -9.76814 1.07977 0.0105001 12.3472 0.171033 -1.0596 -1.5072 -5.81465 2.03217e-16 0.0 3.88251e-19 -0.568306 -6.82467 -1.7334 0.00887242 5.89446 -0.0383028 0.683134 3.34383 5.86783
-1.51706 83.3875 160.839 178.329 0.411 -172.672 -1.67501 -3.61142 0.285001 2.09389 1.91893 0.127189 0.888988 -11.6304 0.370258 0.610303 16.2061 -1.42504 -0.0 0.0 0.0 -0.0 0.0 0.0 3.72595e-14 -1.2187e-13 -1.16103e-14 46.9396 -0.731593 -2.7662 -6.48162 -2.72352 10.8579 -0.135305 21.7724 3.04565 -4.68055e-11 6.18804e-11 -2.80783e-11 -8.08716e-11 1.0669e-10 -4.51681e-11 -4.67998e-11 6.18806e-11 -2.80905e-11 7.73091 5.47488 0.417314 -4.6808e-11 6.18767e-11 -2.80734e-11 2.90554 0.965183 0.102902 -4.6799e-11 6.1877e-11 -2.80795e-11 10.2786 0.731801 0.0259123 -4.68137e-11 6.18787e-11 -2.8073e-11 2.22167 -0.733487 -0.20892 3.71909e-14 -1.2187e-13 -1.19519e-14 -46.6083 4.81089 -1.5532 5.40291 -2.10469 -9.10667 0.252354 29.1198 -4.06324 3.44727e-10 2.81621e-11 -1.56478e-10 5.86242e-10 4.35213e-11 -2.77925e-10 3.4472e-10 2.81636e-11 -1.56462e-10 -7.73091 5.47488 -0.417314 3.44724e-10 2.81583e-11 -1.56481e-10 -2.90554 0.965183 -0.102902 3.44719e-10 2.816e-11 -1.56476e-10 -10.2786 0.731801 -0.0259123 3.44732e-10 2.8162e-11 -1.56482e-10 -2.22167 -0.733487 0.20892 -2.03217e-16 0.0 -3.88251e-19 2.60648 -13.596 2.39832 -0.0122383 19.5204 0.304134 -2.13695 -3.64259 -12.0532 2.03217e-16 0.0 3.88251e-19 -2.07556 -11.991 -3.62755 0.0434151 14.323 -0.160946 1.07466 2.62763 12.2001
-1.5226 83.3871 160.84 178.309 0.4005 -172.663 -3.03495 -5.26671 0.402611 2.88305 2.79835 0.157682 1.35124 -16.9596 0.553465 1.18418 23.6317 -2.18049 -0.0 0.0 0.0 -0.0 0.0 0.0 4.5178e-14 -1.7511e-13 -1.66148e-14 68.4333 -1.06641 -4.0369 -9.11006 -3.8908 15.854 -1.10083 31.6968 4.84867 -1.79234e-10 9.90279e-11 -4.66415e-11 -3.0974e-10 1.70646e-10 -7.51324e-11 -1.79228e-10 9.90275e-11 -4.66561e-11 7.73091 5.47488 0.417314 -1.79238e-10 9.90229e-11 -4.66357e-11 2.90554 0.965183 0.102902 -1.79228e-10 9.90227e-11 -4.66427e-11 10.2786 0.731801 0.0259123 -1.79243e-10 9.90248e-11 -4.66378e-11 2.22167 -0.733487 -0.20892 4.51202e-14 -1.75111e-13 -1.69309e-14 -67.8809 7.03622 -2.27613 7.65974 -3.02701 -13.2955 2.21253 42.3216 -7.00544 4.20693e-10 3.77472e-11 -2.41903e-10 7.1268e-10 5.70763e-11 -4.294e-10 4.20684e-10 3.77487e-11 -2.41885e-10 -7.73091 5.47488 -0.417314 4.20689e-10 3.77418e-11 -2.41906e-10 -2.90554 0.965183 -0.102902 4.20684e-10 3.77442e-11 -2.41899e-10 -10.2786 0.731801 -0.0259123 4.20699e-10 3.77464e-11 -2.41906e-10 -2.22167 -0.733487 0.20892 -2.03217e-16 0.0 -3.88251e-19 3.36097 -17.0002 3.6186 -0.0640576 25.918 0.437343 -3.48819 -5.42853 -17.6515 2.03217e-16 0.0 3.88251e-19 -3.72129 -16.5717 -5.40445 0.106915 21.8404 -0.281152 1.55207 1.98923 17.847
-1.51781 83.3827 160.852 178.315 0.4451 -172.612 -3.97689 -6.42861 0.495092 3.42337 3.40496 0.182521 1.70379 -20.67 0.69205 1.72243 28.8237 -2.78899 -0.0 0.0 0.0 -0.0 0.0 0.0 5.25094e-14 -2.0276e-13 -1.85367e-14 83.4168 -1.30217 -4.93182 -10.8203 -4.65305 19.3481 -2.25236 38.5613 6.43275 -3.33918e-10 1.56337e-10 -7.84929e-11 -5.77563e-10 2.69053e-10 -1.26612e-10 -3.33912e-10 1.56336e-10 -7.85088e-11 7.73091 5.47488 0.417314 -3.33922e-10 1.56331e-10 -7.84866e-11 2.90554 0.965183 0.102902 -3.33913e-10 1.56331e-10 -7.84937e-11 10.2786 0.731801 0.0259123 -3.33928e-10 1.56333e-10 -7.84897e-11 2.22167 -0.733487 -0.20892 5.24523e-14 -2.02761e-13 -1.88348e-14 -82.6665 8.66974 -2.79349 9.16218 -3.64752 -16.2393 4.87029 51.3318 -10.1149 5.165e-10 3.17515e-11 -3.49463e-10 8.7271e-10 4.22505e-11 -6.19464e-10 5.1649e-10 3.17531e-11 -3.49444e-10 -7.73091 5.47488 -0.417314 5.16496e-10 3.17455e-11 -3.49467e-10 -2.90554 0.965183 -0.102902 5.16491e-10 3.17484e-11 -3.49459e-10 -10.2786 0.731801 -0.0259123 5.16506e-10 3.17507e-11 -3.49467e-10 -2.22167 -0.733487 0.20892 -2.03217e-16 0.0 -3.88251e-19 3.97774 -19.3694 4.50033 -0.120933 30.3768 0.542324 -4.63771 -6.57757 -21.5736 2.03217e-16 0.0 3.88251e-19 -5.04873 -19.7446 -6.7166 0.171944 27.0801 -0.375083 1.95412 1.5578 21.7919
-1.5139 83.379 160.847 178.318 0.4873 -172.57 -4.33912 -6.90168 0.55565 3.61285 3.62733 0.200726 1.86566 -22.1141 0.752826 1.98143 30.904 -3.07077 -0.0 0.0 0.0 -0.0 0.0 0.0 6.01614e-14 -1.96446e-13 -1.54276e-14 89.3042 -1.40243 -5.30116 -11.464 -4.93784 20.7198 -2.83736 41.2078 7.15374 -5.62415e-10 2.54547e-10 -1.16047e-10 -9.73135e-10 4.36968e-10 -1.84649e-10 -5.62408e-10 2.54546e-10 -1.16063e-10 7.73091 5.47488 0.417314 -5.62418e-10 2.54542e-10 -1.16041e-10 2.90554 0.965183 0.102902 -5.6241e-10 2.54541e-10 -1.16047e-10 10.2786 0.731801 0.0259123 -5.62424e-10 2.54543e-10 -1.16043e-10 2.22167 -0.733487 -0.20892 6.00867e-14 -1.96447e-13 -1.57234e-14 -88.4268 9.48086 -3.01241 9.75177 -3.89389 -17.4298 6.32369 54.6682 -11.6872 6.85585e-10 1.5115e-11 -5.03498e-10 1.15747e-09 5.28009e-12 -8.92015e-10 6.85575e-10 1.51167e-11 -5.0348e-10 -7.73091 5.47488 -0.417314 6.85581e-10 1.511e-11 -5.035e-10 -2.90554 0.965183 -0.102902 6.85576e-10 1.5113e-11 -5.03494e-10 -10.2786 0.731801 -0.0259123 6.85591e-10 1.51155e-11 -5.03503e-10 -2.22167 -0.733487 0.20892 -2.03217e-16 0.0 -3.88251e-19 4.23716 -20.3113 4.84588 -0.148855 32.122 0.587387 -5.12609 -7.0008 -23.0934 2.03217e-16 0.0 3.88251e-19 -5.61415 -20.9908 -7.25851 0.202029 29.1307 -0.414145 2.1236 1.40446 23.3586
